<svg width="21" height="34" viewBox="0 0 21 34" fill="none" xmlns="http://www.w3.org/2000/svg">
<path d="M1.81731 27.714C1.27645 27.714 0.832935 27.5626 0.48678 27.2597C0.16226 26.9784 0 26.6647 0 26.3186C0 25.9292 0.0540866 25.6371 0.16226 25.4424C0.292068 25.226 0.562501 25.0746 0.97356 24.988C1.99039 24.7501 3.03967 24.4688 4.1214 24.1443C5.22477 23.7981 6.25242 23.4412 7.20434 23.0734C8.15627 22.684 8.9243 22.3053 9.50844 21.9376C10.1142 21.5698 10.4171 21.2452 10.4171 20.964C10.4171 20.7044 10.1791 20.4556 9.70315 20.2176C9.22719 19.958 8.62142 19.6767 7.88584 19.3738C7.15026 19.071 6.36059 18.7356 5.51684 18.3678C4.67309 18 3.88342 17.5782 3.14784 17.1022C2.41227 16.6262 1.80649 16.0854 1.33053 15.4796C0.854569 14.8522 0.616588 14.1383 0.616588 13.3378C0.616588 12.083 0.919473 10.9147 1.52524 9.83296C2.15265 8.72959 2.96395 7.71276 3.95914 6.78247C4.95434 5.85218 6.04689 4.99761 7.2368 4.21876C8.44834 3.41828 9.63825 2.71515 10.8065 2.10938C11.9964 1.48198 13.0565 0.930291 13.9868 0.454328C14.2897 0.28125 14.5818 0.16226 14.863 0.0973567C15.1443 0.0324522 15.3931 0 15.6094 0C16.2368 0 16.6911 0.140625 16.9724 0.421876C17.2537 0.703127 17.3943 1.02765 17.3943 1.39544C17.3943 1.69832 17.232 2.05529 16.9075 2.46635C16.583 2.85578 16.1178 3.20193 15.5121 3.50482C14.9063 3.8077 14.1815 3.95914 13.3378 3.95914H13.0782C12.3426 4.34857 11.5421 4.81371 10.6767 5.35458C9.81132 5.89545 8.95675 6.4904 8.113 7.13944C7.26925 7.78848 6.4904 8.45916 5.77646 9.15147C5.08415 9.82214 4.52165 10.4712 4.08895 11.0986C3.67789 11.726 3.47236 12.2993 3.47236 12.8185C3.47236 13.4459 3.71035 14.0085 4.18631 14.506C4.66227 15.0036 5.26804 15.4472 6.00362 15.8366C6.76083 16.226 7.5505 16.6046 8.37262 16.9724C9.21637 17.3402 10.006 17.7188 10.7416 18.1082C11.4988 18.476 12.1154 18.8871 12.5914 19.3414C13.0673 19.7741 13.3053 20.2825 13.3053 20.8666C13.3053 21.5373 13.0673 22.1755 12.5914 22.7813C12.137 23.3871 11.5313 23.9496 10.7741 24.4688C10.0169 24.9664 9.18392 25.4207 8.27526 25.8318C7.38824 26.2212 6.51204 26.5566 5.64665 26.8378C4.78126 27.1191 4.00241 27.3354 3.3101 27.4869C2.63943 27.6383 2.14183 27.714 1.81731 27.714Z" fill="#01B14F"/>
<path d="M19.1824 5.40868C19.7233 5.40868 20.1668 5.56012 20.513 5.863C20.8375 6.14425 20.9998 6.45796 20.9998 6.80411C20.9998 7.19354 20.9457 7.48561 20.8375 7.68032C20.7077 7.89666 20.4373 8.04811 20.0262 8.13465C19.0094 8.37263 17.9601 8.65388 16.8784 8.9784C15.775 9.32455 14.7473 9.68152 13.7954 10.0493C12.8435 10.4387 12.0755 10.8173 11.4913 11.1851C10.8855 11.5529 10.5827 11.8774 10.5827 12.1587C10.5827 12.4183 10.8206 12.6671 11.2966 12.9051C11.7726 13.1647 12.3783 13.446 13.1139 13.7488C13.8495 14.0517 14.6392 14.3871 15.4829 14.7549C16.3267 15.1226 17.1163 15.5445 17.8519 16.0205C18.5875 16.4964 19.1933 17.0373 19.6692 17.6431C20.1452 18.2705 20.3832 18.9844 20.3832 19.7849C20.3832 21.0397 20.0803 22.208 19.4745 23.2897C18.8471 24.3931 18.0358 25.4099 17.0406 26.3402C16.0454 27.2705 14.9529 28.1251 13.763 28.9039C12.5514 29.7044 11.3615 30.4075 10.1932 31.0133C9.00333 31.6407 7.94323 32.1924 7.01294 32.6684C6.71006 32.8414 6.41799 32.9604 6.13674 33.0253C5.85549 33.0902 5.60669 33.1227 5.39034 33.1227C4.76294 33.1227 4.30861 32.9821 4.02736 32.7008C3.74611 32.4196 3.60548 32.095 3.60548 31.7273C3.60548 31.4244 3.76774 31.0674 4.09226 30.6563C4.41678 30.2669 4.88193 29.9208 5.4877 29.6179C6.09347 29.315 6.81823 29.1635 7.66198 29.1635H7.9216C8.65718 28.7741 9.45766 28.309 10.323 27.7681C11.1884 27.2272 12.043 26.6323 12.8868 25.9832C13.7305 25.3342 14.5094 24.6635 15.2233 23.9712C15.9156 23.3006 16.4781 22.6515 16.9108 22.0241C17.3219 21.3967 17.5274 20.8234 17.5274 20.3041C17.5274 19.6767 17.2894 19.1142 16.8134 18.6166C16.3375 18.119 15.7317 17.6755 14.9961 17.2861C14.2389 16.8967 13.4493 16.5181 12.6271 16.1503C11.7834 15.7825 10.9937 15.4039 10.2581 15.0145C9.50093 14.6467 8.88434 14.2356 8.40838 13.7813C7.93242 13.3486 7.69443 12.8402 7.69443 12.2561C7.69443 11.5854 7.93242 10.9472 8.40838 10.3414C8.86271 9.73561 9.46848 9.17311 10.2257 8.65388C10.9829 8.15628 11.8158 7.70195 12.7245 7.29089C13.6115 6.90147 14.4877 6.56613 15.3531 6.28488C16.2185 6.00363 16.9973 5.78728 17.6897 5.63584C18.3603 5.4844 18.8579 5.40868 19.1824 5.40868Z" fill="#01B14F"/>
</svg>
